<svg width="64" height="54" viewBox="0 0 64 54" fill="none" xmlns="http://www.w3.org/2000/svg">
<path d="M61.71 30.9896L63.81 27.3696C64.07 26.9296 64.07 26.3796 63.81 25.9396C63.6835 25.7224 63.5026 25.5418 63.2852 25.4156C63.0678 25.2894 62.8214 25.2218 62.57 25.2196H53.57C53.17 25.2196 52.78 25.3896 52.51 25.6896L48.84 29.7396L44.56 29.8096C44.22 25.5696 42.7 21.6696 40.31 18.4296L41.59 17.1496L42.3 17.8596C42.58 18.1396 42.95 18.2796 43.31 18.2796C43.67 18.2796 44.04 18.1396 44.32 17.8596L47.11 15.0696C47.67 14.5096 47.67 13.5996 47.11 13.0396L41.28 7.20961C40.72 6.64961 39.81 6.64961 39.25 7.20961L36.46 9.99961C35.9 10.5596 35.9 11.4696 36.46 12.0296L37.17 12.7396L35.95 13.9596C32.4388 11.2391 28.1928 9.63333 23.76 9.34961V7.84961H25.74C26.7677 7.84961 27.7533 7.44135 28.48 6.71465C29.2067 5.98795 29.615 5.00232 29.615 3.97461C29.615 2.9469 29.2067 1.96127 28.48 1.23457C27.7533 0.507867 26.7677 0.0996094 25.74 0.0996094H18.9C17.8723 0.0996094 16.8867 0.507867 16.16 1.23457C15.4333 1.96127 15.025 2.9469 15.025 3.97461C15.025 5.00232 15.4333 5.98795 16.16 6.71465C16.8867 7.44135 17.8723 7.84961 18.9 7.84961H20.88V9.34961C9.24 10.0796 0 19.7796 0 31.5996C0 43.8996 10.01 53.9096 22.31 53.9096C34.26 53.9096 44.04 44.4696 44.59 32.6596L49 32.5996L52.52 36.3196C52.79 36.6096 53.17 36.7696 53.56 36.7696H62.56C63.07 36.7696 63.55 36.4996 63.8 36.0496C64.06 35.6096 64.06 35.0596 63.8 34.6196L61.71 30.9896ZM40.25 10.2396L44.06 14.0496L43.3 14.8096L42.59 14.0996L40.21 11.7196V11.7096H40.2L39.49 10.9996L40.25 10.2396ZM39.19 14.7496L39.55 15.1096L38.45 16.2096C38.33 16.0896 38.22 15.9596 38.1 15.8396L39.19 14.7496ZM18.9 4.97961C18.34 4.97961 17.89 4.52961 17.89 3.95961C17.89 3.39961 18.34 2.94961 18.9 2.94961H25.72C26.28 2.94961 26.73 3.39961 26.73 3.96961C26.73 4.52961 26.28 4.97961 25.72 4.97961H18.9ZM22.31 51.0496C11.59 51.0496 2.86 42.3296 2.86 31.5996C2.86 20.8796 11.58 12.1496 22.31 12.1496C32.44 12.1496 40.78 19.9396 41.67 29.8396L40.27 29.8596C39.39 20.7196 31.68 13.5496 22.31 13.5496C12.36 13.5496 4.27 21.6396 4.27 31.5896C4.27 41.5396 12.36 49.6296 22.31 49.6296C31.88 49.6296 39.71 42.1396 40.3 32.7196L41.7 32.6996C41.12 42.9196 32.66 51.0496 22.31 51.0496ZM22.31 41.8696C21.52 41.8696 20.88 42.5096 20.88 43.2996V45.6596C20.88 46.0796 21.07 46.4596 21.36 46.7196C13.44 46.2396 7.13 39.6496 7.13 31.5996C7.13 23.2296 13.94 16.4196 22.31 16.4196C30.11 16.4196 36.55 22.3296 37.39 29.9096L24.79 30.1096C24.5336 29.6804 24.1704 29.3249 23.7358 29.0778C23.3012 28.8307 22.81 28.7004 22.31 28.6996C20.71 28.6996 19.41 29.9996 19.41 31.5996C19.41 33.1996 20.71 34.4996 22.31 34.4996C23.41 34.4996 24.36 33.8796 24.85 32.9696L37.43 32.7696C36.85 40.2696 30.8 46.2496 23.26 46.7196C23.55 46.4596 23.74 46.0796 23.74 45.6596V43.2996C23.74 42.5096 23.1 41.8696 22.31 41.8696ZM54.18 33.8996L52.89 32.5396L59.24 32.4396L60.09 33.8996H54.18ZM59.22 29.5696L52.75 29.6696L54.19 28.0796H60.07L59.22 29.5696Z" fill="#013EBD"/>
</svg>
