<svg width="64" height="64" viewBox="0 0 64 64" fill="none" xmlns="http://www.w3.org/2000/svg">
<path d="M49.8667 35.7333C46.5333 35.7333 43.4667 36.9333 41.0667 38.8L34.2667 32L41.0667 25.2C43.4667 27.0667 46.5333 28.2667 49.8667 28.2667C57.7333 28.2667 64 21.8667 64 14.1333C64 6.4 57.6 0 49.8667 0C42 0 35.7333 6.4 35.7333 14.1333C35.7333 17.4667 36.9333 20.5333 38.8 22.9333L32 29.7333L25.2 22.9333C27.0667 20.5333 28.2667 17.4667 28.2667 14.1333C28.2667 6.4 22 0 14.1333 0C6.4 0 0 6.4 0 14.1333C0 22 6.4 28.2667 14.1333 28.2667C17.4667 28.2667 20.5333 27.0667 22.9333 25.2L29.7333 32L22.9333 38.8C20.5333 36.9333 17.4667 35.7333 14.1333 35.7333C6.4 35.7333 0 42 0 49.8667C0 57.6 6.4 64 14.1333 64C22 64 28.2667 57.6 28.2667 49.8667C28.2667 46.5333 27.0667 43.4667 25.2 41.0667L32 34.2667L38.8 41.0667C36.9333 43.4667 35.7333 46.5333 35.7333 49.8667C35.7333 57.7333 42.1333 64 49.8667 64C57.6 64 64 57.6 64 49.8667C64 42 57.6 35.7333 49.8667 35.7333ZM37.7333 14.1333C37.7333 7.46667 43.2 2.13333 49.7333 2.13333C56.4 2.13333 61.7333 7.6 61.7333 14.1333C61.7333 17.3333 60.5333 20.1333 58.5333 22.4C56.6667 19.4667 53.4667 17.4667 49.7333 17.4667C46 17.4667 42.8 19.4667 40.9333 22.4C39.0667 20.2667 37.7333 17.3333 37.7333 14.1333ZM14.1333 17.4667C10.4 17.4667 7.2 19.4667 5.33333 22.4C3.33333 20.2667 2.13333 17.3333 2.13333 14.1333C2.13333 7.46667 7.6 2.13333 14.1333 2.13333C20.8 2.13333 26.1333 7.6 26.1333 14.1333C26.1333 17.3333 24.9333 20.1333 22.9333 22.4C21.0667 19.4667 17.8667 17.4667 14.1333 17.4667ZM26.2667 49.8667C26.2667 53.0667 25.0667 55.8667 23.0667 58.1333C21.2 55.2 18 53.2 14.2667 53.2C10.5333 53.2 7.33333 55.2 5.46667 58.1333C3.46667 56 2.26667 53.0667 2.26667 49.8667C2.26667 43.2 7.73333 37.8667 14.2667 37.8667C20.8 37.7333 26.2667 43.2 26.2667 49.8667ZM58.6667 58C56.8 55.0667 53.6 53.0667 49.8667 53.0667C46.1333 53.0667 42.9333 55.0667 41.0667 58C39.0667 55.8667 37.8667 52.9333 37.8667 49.7333C37.8667 43.0667 43.3333 37.7333 49.8667 37.7333C56.5333 37.7333 61.8667 43.2 61.8667 49.7333C61.8667 53.0667 60.6667 55.8667 58.6667 58Z" fill="#013EBD"/>
</svg>
