<svg width="58" height="58" viewBox="0 0 58 58" fill="none" xmlns="http://www.w3.org/2000/svg">
<path d="M52.6802 37.3192C52.6802 33.7992 49.8002 30.9192 46.2802 30.9192C42.7602 30.9192 39.8802 33.7992 39.8802 37.3192C39.8802 40.8392 42.7602 43.7192 46.2802 43.7192C49.8002 43.7192 52.6802 40.8392 52.6802 37.3192ZM46.2802 41.1592C44.1682 41.1592 42.4402 39.4312 42.4402 37.3192C42.4402 35.2072 44.1682 33.4792 46.2802 33.4792C48.3922 33.4792 50.1202 35.2072 50.1202 37.3192C50.1202 39.4312 48.3922 41.1592 46.2802 41.1592ZM46.2802 43.7192C43.8482 43.7192 41.5442 44.4872 39.6882 45.8312C37.9602 41.6072 33.8002 38.5992 29.0002 38.5992C24.2002 38.5992 20.0402 41.6072 18.3122 45.8312C16.4562 44.5512 14.1522 43.7192 11.7202 43.7192C5.3842 43.7192 0.200195 48.9032 0.200195 55.2392V56.5192C0.200195 57.2232 0.776195 57.7992 1.4802 57.7992H56.5202C57.2242 57.7992 57.8002 57.2232 57.8002 56.5192V55.2392C57.8002 48.9032 52.6162 43.7192 46.2802 43.7192ZM17.4802 50.1192V55.2392H2.7602C2.7602 50.3112 6.7922 46.2792 11.7202 46.2792C13.9602 46.2792 16.0082 47.1112 17.6082 48.5192C17.5442 49.0312 17.4802 49.5432 17.4802 50.1192ZM37.9602 55.2392H20.0402V50.1192C20.0402 45.1912 24.0722 41.1592 29.0002 41.1592C33.9282 41.1592 37.9602 45.1912 37.9602 50.1192V55.2392ZM40.5202 55.2392V50.1192C40.5202 49.5432 40.4562 49.0312 40.3922 48.5192C41.9922 47.1752 44.0402 46.2792 46.2802 46.2792C51.2082 46.2792 55.2402 50.3112 55.2402 55.2392H40.5202ZM18.1202 37.3192C18.1202 33.7992 15.2402 30.9192 11.7202 30.9192C8.2002 30.9192 5.3202 33.7992 5.3202 37.3192C5.3202 40.8392 8.2002 43.7192 11.7202 43.7192C15.2402 43.7192 18.1202 40.8392 18.1202 37.3192ZM11.7202 41.1592C9.6082 41.1592 7.8802 39.4312 7.8802 37.3192C7.8802 35.2072 9.6082 33.4792 11.7202 33.4792C13.8322 33.4792 15.5602 35.2072 15.5602 37.3192C15.5602 39.4312 13.8322 41.1592 11.7202 41.1592ZM35.4002 32.1992C35.4002 28.6792 32.5202 25.7992 29.0002 25.7992C25.4802 25.7992 22.6002 28.6792 22.6002 32.1992C22.6002 35.7192 25.4802 38.5992 29.0002 38.5992C32.5202 38.5992 35.4002 35.7192 35.4002 32.1992ZM29.0002 36.0392C26.8882 36.0392 25.1602 34.3112 25.1602 32.1992C25.1602 30.0872 26.8882 28.3592 29.0002 28.3592C31.1122 28.3592 32.8402 30.0872 32.8402 32.1992C32.8402 34.3112 31.1122 36.0392 29.0002 36.0392ZM5.2562 13.3192L4.2962 19.1432C4.2322 19.6552 4.4242 20.1032 4.8082 20.4232C5.1922 20.6792 5.7682 20.7432 6.1522 20.4872L11.0802 17.7992L16.0082 20.4872C16.2002 20.6152 16.3922 20.6152 16.6482 20.6152C16.9042 20.6152 17.1602 20.5512 17.3522 20.3592C17.7362 20.1032 17.9922 19.5912 17.8642 19.0792L16.9042 13.2552L20.0402 10.0552L23.1762 13.2552L22.2162 19.0792C22.1522 19.5912 22.3442 20.0392 22.7282 20.3592C23.1122 20.6152 23.6882 20.6792 24.0722 20.4232L29.0002 17.7352L33.9282 20.4232C34.1202 20.5512 34.3122 20.5512 34.5682 20.5512C34.8242 20.5512 35.0802 20.4872 35.2722 20.2952C35.6562 20.0392 35.9122 19.5272 35.7842 19.0152L34.8242 13.1912L37.9602 9.99122L41.0962 13.1912L40.1362 19.0152C40.0722 19.5272 40.2642 19.9752 40.6482 20.2952C41.0322 20.5512 41.6082 20.6152 41.9922 20.3592L46.9202 17.6712L51.8482 20.3592C52.0402 20.4872 52.2322 20.4872 52.4882 20.4872C52.7442 20.4872 53.0002 20.4232 53.1922 20.2312C53.5762 19.9752 53.8322 19.4632 53.7042 18.9512L52.7442 13.1272L56.7762 8.96722C57.0962 8.64722 57.2242 8.13522 57.0962 7.68722C56.9682 7.23922 56.5202 6.91922 56.0722 6.85522L50.5682 6.02322L48.0722 0.775219C47.8802 0.519219 47.4322 0.199219 46.9202 0.199219C46.4082 0.199219 45.9602 0.519219 45.7682 0.903219L43.2722 6.15122L37.9602 7.04722L32.6482 6.21522L30.1522 0.967219C29.9602 0.519219 29.5122 0.199219 29.0002 0.199219C28.4882 0.199219 28.0402 0.519219 27.8482 0.903219L25.3522 6.15122L20.0402 7.04722L14.7282 6.21522L12.2322 0.967219C12.0402 0.519219 11.5922 0.199219 11.0802 0.199219C10.5682 0.199219 10.1202 0.519219 9.9282 0.903219L7.4322 6.15122L1.9282 6.98322C1.4802 7.04722 1.0322 7.36722 0.904195 7.81522C0.776195 8.26322 0.840195 8.77522 1.2242 9.09522L5.2562 13.3192ZM44.3602 8.64722C44.8082 8.58322 45.1282 8.32722 45.3202 7.94322L46.9202 4.48722L48.5202 7.94322C48.7122 8.32722 49.0322 8.58322 49.4802 8.64722L53.1922 9.22322L50.4402 12.0392C50.1202 12.3592 49.9922 12.7432 50.1202 13.1272L50.7602 17.0312L47.5602 15.2392C47.3682 15.1112 47.1762 15.1112 46.9202 15.1112C46.6642 15.1112 46.4722 15.1752 46.2802 15.2392L43.0802 17.0312L43.7202 13.1272C43.7842 12.7432 43.6562 12.2952 43.4002 12.0392L40.6482 9.22322L44.3602 8.64722ZM26.4402 8.64722C26.8882 8.58322 27.2082 8.32722 27.4002 7.94322L29.0002 4.48722L30.6002 7.94322C30.7922 8.32722 31.1122 8.58322 31.5602 8.64722L35.2722 9.22322L32.5202 12.0392C32.2002 12.3592 32.0722 12.7432 32.2002 13.1272L32.8402 17.0312L29.6402 15.2392C29.4482 15.1112 29.2562 15.1112 29.0002 15.1112C28.7442 15.1112 28.5522 15.1752 28.3602 15.2392L25.1602 17.0312L25.8002 13.1272C25.8642 12.7432 25.7362 12.2952 25.4802 12.0392L22.7282 9.22322L26.4402 8.64722ZM8.5202 8.64722C8.9682 8.58322 9.2882 8.32722 9.4802 7.94322L11.0802 4.48722L12.6802 7.94322C12.8722 8.32722 13.1922 8.58322 13.6402 8.64722L17.3522 9.22322L14.6002 12.0392C14.2802 12.3592 14.1522 12.7432 14.2802 13.1272L14.9202 17.0312L11.7202 15.2392C11.5282 15.1112 11.3362 15.1112 11.0802 15.1112C10.8242 15.1112 10.6322 15.1752 10.4402 15.2392L7.2402 17.0312L7.8802 13.1272C7.9442 12.7432 7.8162 12.2952 7.5602 12.0392L4.8082 9.22322L8.5202 8.64722Z" fill="#013EBD"/>
</svg>
