<svg width="98" height="63" viewBox="0 0 98 63" fill="none" xmlns="http://www.w3.org/2000/svg">
<path fill-rule="evenodd" clip-rule="evenodd" d="M49 5.54503C43.7845 1.92615 37.586 -0.0089315 31.238 3.09926e-05C13.997 3.09926e-05 0 13.997 0 31.237C0 48.477 13.997 62.474 31.238 62.474C37.5859 62.4833 43.7844 60.5486 49 56.93C54.2158 60.5482 60.4142 62.4828 66.762 62.474C84.003 62.475 98 48.478 98 31.237C98 13.997 84.003 3.09926e-05 66.762 3.09926e-05C60.414 -0.0089315 54.2155 1.92615 49 5.54503ZM44.117 52.745H14.401C19.2022 56.5164 25.1327 58.5629 31.238 58.555C36.578 58.555 41.562 57.019 45.774 54.365C45.2018 53.8457 44.6491 53.3053 44.117 52.745ZM52.226 54.365C56.5771 57.1092 61.6178 58.5622 66.762 58.555C81.839 58.555 94.08 46.314 94.08 31.237C94.08 16.16 81.839 3.92003 66.762 3.92003C61.6177 3.91238 56.5769 5.36537 52.226 8.11003C58.521 13.827 62.475 22.074 62.475 31.237C62.475 40.401 58.521 48.648 52.226 54.365ZM49 10.489C54.847 15.5 58.555 22.939 58.555 31.237C58.555 39.536 54.847 46.975 49 51.986C43.153 46.975 39.445 39.536 39.445 31.237C39.445 22.939 43.153 15.5 49 10.489ZM37.807 42.971H6.565C7.56903 45.0753 8.83798 47.0426 10.341 48.825H40.949C39.6963 46.9911 38.643 45.0286 37.807 42.971ZM35.585 33.197H3.989C4.133 35.217 4.496 37.176 5.056 39.051H36.512C36.0177 37.1336 35.7073 35.1734 35.585 33.197ZM36.512 23.424H5.056C4.4872 25.3301 4.12939 27.2929 3.989 29.277H35.585C35.71 27.269 36.025 25.312 36.512 23.424ZM40.949 13.65H10.341C8.8381 15.4325 7.56915 17.3998 6.565 19.504H37.807C38.6432 17.4465 39.6965 15.4841 40.949 13.65ZM45.774 8.11003C41.4231 5.36537 36.3823 3.91238 31.238 3.92003C25.1326 3.91164 19.202 5.95814 14.401 9.73003H44.117C44.6491 9.16974 45.2018 8.62936 45.774 8.11003Z" fill="#013EBD"/>
</svg>
