<svg width="64" height="64" viewBox="0 0 64 64" fill="none" xmlns="http://www.w3.org/2000/svg">
<g id="customer-review 1">
<path id="Vector" d="M55.6802 40.3192C55.6802 36.7992 52.8002 33.9192 49.2802 33.9192C45.7602 33.9192 42.8802 36.7992 42.8802 40.3192C42.8802 43.8392 45.7602 46.7192 49.2802 46.7192C52.8002 46.7192 55.6802 43.8392 55.6802 40.3192ZM49.2802 44.1592C47.1682 44.1592 45.4402 42.4312 45.4402 40.3192C45.4402 38.2072 47.1682 36.4792 49.2802 36.4792C51.3922 36.4792 53.1202 38.2072 53.1202 40.3192C53.1202 42.4312 51.3922 44.1592 49.2802 44.1592ZM49.2802 46.7192C46.8482 46.7192 44.5442 47.4872 42.6882 48.8312C40.9602 44.6072 36.8002 41.5992 32.0002 41.5992C27.2002 41.5992 23.0402 44.6072 21.3122 48.8312C19.4562 47.5512 17.1522 46.7192 14.7202 46.7192C8.3842 46.7192 3.2002 51.9032 3.2002 58.2392V59.5192C3.2002 60.2232 3.7762 60.7992 4.4802 60.7992H59.5202C60.2242 60.7992 60.8002 60.2232 60.8002 59.5192V58.2392C60.8002 51.9032 55.6162 46.7192 49.2802 46.7192ZM20.4802 53.1192V58.2392H5.7602C5.7602 53.3112 9.7922 49.2792 14.7202 49.2792C16.9602 49.2792 19.0082 50.1112 20.6082 51.5192C20.5442 52.0312 20.4802 52.5432 20.4802 53.1192ZM40.9602 58.2392H23.0402V53.1192C23.0402 48.1912 27.0722 44.1592 32.0002 44.1592C36.9282 44.1592 40.9602 48.1912 40.9602 53.1192V58.2392ZM43.5202 58.2392V53.1192C43.5202 52.5432 43.4562 52.0312 43.3922 51.5192C44.9922 50.1752 47.0402 49.2792 49.2802 49.2792C54.2082 49.2792 58.2402 53.3112 58.2402 58.2392H43.5202ZM21.1202 40.3192C21.1202 36.7992 18.2402 33.9192 14.7202 33.9192C11.2002 33.9192 8.3202 36.7992 8.3202 40.3192C8.3202 43.8392 11.2002 46.7192 14.7202 46.7192C18.2402 46.7192 21.1202 43.8392 21.1202 40.3192ZM14.7202 44.1592C12.6082 44.1592 10.8802 42.4312 10.8802 40.3192C10.8802 38.2072 12.6082 36.4792 14.7202 36.4792C16.8322 36.4792 18.5602 38.2072 18.5602 40.3192C18.5602 42.4312 16.8322 44.1592 14.7202 44.1592ZM38.4002 35.1992C38.4002 31.6792 35.5202 28.7992 32.0002 28.7992C28.4802 28.7992 25.6002 31.6792 25.6002 35.1992C25.6002 38.7192 28.4802 41.5992 32.0002 41.5992C35.5202 41.5992 38.4002 38.7192 38.4002 35.1992ZM32.0002 39.0392C29.8882 39.0392 28.1602 37.3112 28.1602 35.1992C28.1602 33.0872 29.8882 31.3592 32.0002 31.3592C34.1122 31.3592 35.8402 33.0872 35.8402 35.1992C35.8402 37.3112 34.1122 39.0392 32.0002 39.0392ZM8.2562 16.3192L7.2962 22.1432C7.2322 22.6552 7.4242 23.1032 7.8082 23.4232C8.1922 23.6792 8.7682 23.7432 9.1522 23.4872L14.0802 20.7992L19.0082 23.4872C19.2002 23.6152 19.3922 23.6152 19.6482 23.6152C19.9042 23.6152 20.1602 23.5512 20.3522 23.3592C20.7362 23.1032 20.9922 22.5912 20.8642 22.0792L19.9042 16.2552L23.0402 13.0552L26.1762 16.2552L25.2162 22.0792C25.1522 22.5912 25.3442 23.0392 25.7282 23.3592C26.1122 23.6152 26.6882 23.6792 27.0722 23.4232L32.0002 20.7352L36.9282 23.4232C37.1202 23.5512 37.3122 23.5512 37.5682 23.5512C37.8242 23.5512 38.0802 23.4872 38.2722 23.2952C38.6562 23.0392 38.9122 22.5272 38.7842 22.0152L37.8242 16.1912L40.9602 12.9912L44.0962 16.1912L43.1362 22.0152C43.0722 22.5272 43.2642 22.9752 43.6482 23.2952C44.0322 23.5512 44.6082 23.6152 44.9922 23.3592L49.9202 20.6712L54.8482 23.3592C55.0402 23.4872 55.2322 23.4872 55.4882 23.4872C55.7442 23.4872 56.0002 23.4232 56.1922 23.2312C56.5762 22.9752 56.8322 22.4632 56.7042 21.9512L55.7442 16.1272L59.7762 11.9672C60.0962 11.6472 60.2242 11.1352 60.0962 10.6872C59.9682 10.2392 59.5202 9.91922 59.0722 9.85522L53.5682 9.02322L51.0722 3.77522C50.8802 3.51922 50.4322 3.19922 49.9202 3.19922C49.4082 3.19922 48.9602 3.51922 48.7682 3.90322L46.2722 9.15122L40.9602 10.0472L35.6482 9.21522L33.1522 3.96722C32.9602 3.51922 32.5122 3.19922 32.0002 3.19922C31.4882 3.19922 31.0402 3.51922 30.8482 3.90322L28.3522 9.15122L23.0402 10.0472L17.7282 9.21522L15.2322 3.96722C15.0402 3.51922 14.5922 3.19922 14.0802 3.19922C13.5682 3.19922 13.1202 3.51922 12.9282 3.90322L10.4322 9.15122L4.9282 9.98322C4.4802 10.0472 4.0322 10.3672 3.9042 10.8152C3.7762 11.2632 3.8402 11.7752 4.2242 12.0952L8.2562 16.3192ZM47.3602 11.6472C47.8082 11.5832 48.1282 11.3272 48.3202 10.9432L49.9202 7.48722L51.5202 10.9432C51.7122 11.3272 52.0322 11.5832 52.4802 11.6472L56.1922 12.2232L53.4402 15.0392C53.1202 15.3592 52.9922 15.7432 53.1202 16.1272L53.7602 20.0312L50.5602 18.2392C50.3682 18.1112 50.1762 18.1112 49.9202 18.1112C49.6642 18.1112 49.4722 18.1752 49.2802 18.2392L46.0802 20.0312L46.7202 16.1272C46.7842 15.7432 46.6562 15.2952 46.4002 15.0392L43.6482 12.2232L47.3602 11.6472ZM29.4402 11.6472C29.8882 11.5832 30.2082 11.3272 30.4002 10.9432L32.0002 7.48722L33.6002 10.9432C33.7922 11.3272 34.1122 11.5832 34.5602 11.6472L38.2722 12.2232L35.5202 15.0392C35.2002 15.3592 35.0722 15.7432 35.2002 16.1272L35.8402 20.0312L32.6402 18.2392C32.4482 18.1112 32.2562 18.1112 32.0002 18.1112C31.7442 18.1112 31.5522 18.1752 31.3602 18.2392L28.1602 20.0312L28.8002 16.1272C28.8642 15.7432 28.7362 15.2952 28.4802 15.0392L25.7282 12.2232L29.4402 11.6472ZM11.5202 11.6472C11.9682 11.5832 12.2882 11.3272 12.4802 10.9432L14.0802 7.48722L15.6802 10.9432C15.8722 11.3272 16.1922 11.5832 16.6402 11.6472L20.3522 12.2232L17.6002 15.0392C17.2802 15.3592 17.1522 15.7432 17.2802 16.1272L17.9202 20.0312L14.7202 18.2392C14.5282 18.1112 14.3362 18.1112 14.0802 18.1112C13.8242 18.1112 13.6322 18.1752 13.4402 18.2392L10.2402 20.0312L10.8802 16.1272C10.9442 15.7432 10.8162 15.2952 10.5602 15.0392L7.8082 12.2232L11.5202 11.6472Z" fill="#013EBD"/>
</g>
</svg>
