<svg width="64" height="64" viewBox="0 0 64 64" fill="none" xmlns="http://www.w3.org/2000/svg">
<g id="execution 1" clip-path="url(#clip0_400_611)">
<path id="Vector" d="M22.3095 27.0305C23.0995 27.0305 23.7395 26.3905 23.7395 25.6005V23.2405C23.7395 22.8613 23.5889 22.4976 23.3207 22.2294C23.0525 21.9612 22.6888 21.8105 22.3095 21.8105C21.9303 21.8105 21.5665 21.9612 21.2984 22.2294C21.0302 22.4976 20.8795 22.8613 20.8795 23.2405V25.6005C20.8795 26.3905 21.5195 27.0305 22.3095 27.0305ZM13.8695 26.1405C13.5978 25.8838 13.2367 25.7431 12.8629 25.7484C12.4891 25.7537 12.1321 25.9045 11.8678 26.1688C11.6035 26.4332 11.4526 26.7902 11.4474 27.1639C11.4421 27.5377 11.5828 27.8989 11.8395 28.1705L13.5095 29.8405C13.7895 30.1205 14.1595 30.2605 14.5195 30.2605C14.8028 30.2592 15.0793 30.1741 15.3144 30.016C15.5494 29.8579 15.7324 29.6338 15.8404 29.3719C15.9483 29.11 15.9764 28.822 15.9211 28.5442C15.8658 28.2664 15.7296 28.0111 15.5295 27.8105L13.8695 26.1405ZM12.7395 36.6005C12.7395 35.8105 12.0995 35.1705 11.3095 35.1705H8.94953C8.57027 35.1705 8.20655 35.3212 7.93837 35.5894C7.67019 35.8576 7.51953 36.2213 7.51953 36.6005C7.51953 36.9798 7.67019 37.3435 7.93837 37.6117C8.20655 37.8799 8.57027 38.0305 8.94953 38.0305H11.3095C12.0995 38.0305 12.7395 37.3905 12.7395 36.6005ZM13.5195 43.3705L11.8495 45.0405C11.6495 45.2411 11.5133 45.4964 11.458 45.7742C11.4027 46.052 11.4307 46.34 11.5387 46.6019C11.6467 46.8638 11.8297 47.0879 12.0647 47.246C12.2997 47.4041 12.5763 47.4892 12.8595 47.4905C13.2195 47.4905 13.5895 47.3505 13.8695 47.0705L15.5395 45.4005C16.0995 44.8405 16.0995 43.9305 15.5395 43.3705C14.9795 42.8105 14.0795 42.8105 13.5195 43.3705ZM30.7495 47.0605C31.0295 47.3405 31.3995 47.4805 31.7595 47.4805C32.0428 47.4792 32.3193 47.3941 32.5544 47.236C32.7894 47.0779 32.9724 46.8538 33.0804 46.5919C33.1883 46.33 33.2164 46.042 33.1611 45.7642C33.1058 45.4864 32.9696 45.2311 32.7695 45.0305L31.0995 43.3605C30.8278 43.1038 30.4667 42.9631 30.0929 42.9684C29.7191 42.9737 29.3621 43.1245 29.0978 43.3888C28.8335 43.6532 28.6826 44.0102 28.6774 44.3839C28.6721 44.7577 28.8128 45.1188 29.0695 45.3905L30.7495 47.0605ZM30.0895 30.2505C30.4595 30.2505 30.8195 30.1105 31.0995 29.8305L32.7695 28.1605C33.0263 27.8889 33.167 27.5277 33.1617 27.1539C33.1564 26.7802 33.0056 26.4232 32.7412 26.1588C32.4769 25.8945 32.1199 25.7437 31.7461 25.7384C31.3723 25.7331 31.0112 25.8738 30.7395 26.1305L29.0695 27.8005C28.5095 28.3605 28.5095 29.2705 29.0695 29.8305C29.3595 30.1105 29.7295 30.2505 30.0895 30.2505Z" fill="#013EBD"/>
<path id="Vector_2" d="M61.71 35.9896L63.81 32.3696C64.07 31.9296 64.07 31.3796 63.81 30.9396C63.6835 30.7224 63.5026 30.5418 63.2852 30.4156C63.0678 30.2894 62.8214 30.2218 62.57 30.2196H53.57C53.17 30.2196 52.78 30.3896 52.51 30.6896L48.84 34.7396L44.56 34.8096C44.22 30.5696 42.7 26.6696 40.31 23.4296L41.59 22.1496L42.3 22.8596C42.58 23.1396 42.95 23.2796 43.31 23.2796C43.67 23.2796 44.04 23.1396 44.32 22.8596L47.11 20.0696C47.67 19.5096 47.67 18.5996 47.11 18.0396L41.28 12.2096C40.72 11.6496 39.81 11.6496 39.25 12.2096L36.46 14.9996C35.9 15.5596 35.9 16.4696 36.46 17.0296L37.17 17.7396L35.95 18.9596C32.4388 16.2391 28.1928 14.6333 23.76 14.3496V12.8496H25.74C26.7677 12.8496 27.7533 12.4414 28.48 11.7146C29.2067 10.9879 29.615 10.0023 29.615 8.97461C29.615 7.9469 29.2067 6.96127 28.48 6.23457C27.7533 5.50787 26.7677 5.09961 25.74 5.09961H18.9C17.8723 5.09961 16.8867 5.50787 16.16 6.23457C15.4333 6.96127 15.025 7.9469 15.025 8.97461C15.025 10.0023 15.4333 10.9879 16.16 11.7146C16.8867 12.4414 17.8723 12.8496 18.9 12.8496H20.88V14.3496C9.24 15.0796 0 24.7796 0 36.5996C0 48.8996 10.01 58.9096 22.31 58.9096C34.26 58.9096 44.04 49.4696 44.59 37.6596L49 37.5996L52.52 41.3196C52.79 41.6096 53.17 41.7696 53.56 41.7696H62.56C63.07 41.7696 63.55 41.4996 63.8 41.0496C64.06 40.6096 64.06 40.0596 63.8 39.6196L61.71 35.9896ZM40.25 15.2396L44.06 19.0496L43.3 19.8096L42.59 19.0996L40.21 16.7196V16.7096H40.2L39.49 15.9996L40.25 15.2396ZM39.19 19.7496L39.55 20.1096L38.45 21.2096C38.33 21.0896 38.22 20.9596 38.1 20.8396L39.19 19.7496ZM18.9 9.97961C18.34 9.97961 17.89 9.52961 17.89 8.95961C17.89 8.39961 18.34 7.94961 18.9 7.94961H25.72C26.28 7.94961 26.73 8.39961 26.73 8.96961C26.73 9.52961 26.28 9.97961 25.72 9.97961H18.9ZM22.31 56.0496C11.59 56.0496 2.86 47.3296 2.86 36.5996C2.86 25.8796 11.58 17.1496 22.31 17.1496C32.44 17.1496 40.78 24.9396 41.67 34.8396L40.27 34.8596C39.39 25.7196 31.68 18.5496 22.31 18.5496C12.36 18.5496 4.27 26.6396 4.27 36.5896C4.27 46.5396 12.36 54.6296 22.31 54.6296C31.88 54.6296 39.71 47.1396 40.3 37.7196L41.7 37.6996C41.12 47.9196 32.66 56.0496 22.31 56.0496ZM22.31 46.8696C21.52 46.8696 20.88 47.5096 20.88 48.2996V50.6596C20.88 51.0796 21.07 51.4596 21.36 51.7196C13.44 51.2396 7.13 44.6496 7.13 36.5996C7.13 28.2296 13.94 21.4196 22.31 21.4196C30.11 21.4196 36.55 27.3296 37.39 34.9096L24.79 35.1096C24.5336 34.6804 24.1704 34.3249 23.7358 34.0778C23.3012 33.8307 22.81 33.7004 22.31 33.6996C20.71 33.6996 19.41 34.9996 19.41 36.5996C19.41 38.1996 20.71 39.4996 22.31 39.4996C23.41 39.4996 24.36 38.8796 24.85 37.9696L37.43 37.7696C36.85 45.2696 30.8 51.2496 23.26 51.7196C23.55 51.4596 23.74 51.0796 23.74 50.6596V48.2996C23.74 47.5096 23.1 46.8696 22.31 46.8696ZM54.18 38.8996L52.89 37.5396L59.24 37.4396L60.09 38.8996H54.18ZM59.22 34.5696L52.75 34.6696L54.19 33.0796H60.07L59.22 34.5696Z" fill="#013EBD"/>
</g>
<defs>
<clipPath id="clip0_400_611">
<rect width="64" height="64" fill="white"/>
</clipPath>
</defs>
</svg>
