<svg width="64" height="64" viewBox="0 0 64 64" fill="none" xmlns="http://www.w3.org/2000/svg">
<g id="respect (2) 1" clip-path="url(#clip0_400_591)">
<path id="Vector" d="M51.1405 33.0047L48.1582 30.5286L50.7739 27.375L53.756 29.851L51.1405 33.0047Z" fill="#013EBD"/>
<path id="Vector_2" d="M41.8474 0.762576C37.5219 1.65789 34.092 4.28818 31.9427 8.2287C30.0604 4.76326 26.9285 2.1074 23.1216 1.01187C16.7442 -0.822245 9.70446 1.69331 5.24169 6.42972C-0.0711336 12.0683 -1.42074 20.1201 1.53871 28.5204L5.40141 27.1585C2.07191 17.7078 5.73933 11.8778 8.22179 9.24299C11.8803 5.36032 17.4133 3.63902 21.9899 4.95512C25.8911 6.07758 28.6304 9.28018 29.7633 14.0016L24.6325 24.991C23.1889 28.0825 24.1693 31.7484 26.9633 33.7075C30.4146 36.1278 35.3626 34.8829 37.2618 31.1281L40.7223 24.2865L45.6031 28.3389L48.2185 25.185L41.362 19.4924C40.3698 18.6685 38.8065 18.9987 38.2271 20.144L33.6074 29.2774C32.8163 30.8418 30.754 31.3616 29.3139 30.3515C28.7511 29.9581 28.3452 29.3787 28.1676 28.7154C27.9901 28.0521 28.0522 27.3475 28.3432 26.7255L33.5229 15.6316C33.7332 15.3724 33.8774 15.066 33.943 14.7386C35.0346 9.25981 38.1366 5.71547 42.6772 4.7757C47.8683 3.70056 53.7917 6.27779 57.0822 11.0414C59.5298 14.5845 62.5319 22.2699 55.1393 33.9325C54.8956 34.3169 54.7868 34.7714 54.83 35.2245C54.8731 35.6775 55.0659 36.1033 55.3778 36.4348L55.4438 36.504C55.4561 36.5167 58.0313 39.5805 58.0313 39.5805C58.8492 40.5546 58.7146 42.0522 57.7433 42.8665C56.7559 43.695 55.2777 43.566 54.4489 42.5788C53.7218 41.7125 52.4298 41.6 51.5637 42.3278C50.6977 43.0556 50.5853 44.3481 51.3127 45.2147L51.3128 45.2148C51.3139 45.2162 51.3153 45.2176 51.3162 45.2189L51.5547 45.5031C52.255 46.3373 52.151 47.5917 51.3228 48.2994C50.4699 49.0281 49.1528 48.8932 48.4541 48.0203C47.7263 47.1542 46.4348 47.0425 45.5691 47.7703C44.7034 48.4982 44.5914 49.7907 45.3187 50.657C46.0439 51.5207 45.9224 52.8553 45.0545 53.5746C44.1804 54.2995 42.8751 54.1818 42.1447 53.312C42.0193 53.1627 41.8552 53.0199 41.7034 52.8939C40.8871 52.1791 39.6552 52.2253 38.8946 52.9992C38.134 53.7732 38.1086 55.0063 38.8365 55.8109C39.6093 56.6652 39.5774 57.9737 38.7637 58.7894C37.9635 59.5918 36.6647 59.6398 35.8077 58.8988L34.9979 58.1989L32.3207 61.3006L33.1305 62.0005C36.8172 64.9595 40.2305 63.1495 41.6632 61.6842C42.6475 60.6772 43.2487 59.4357 43.4312 58.1364C44.9185 58.2095 46.437 57.7508 47.6678 56.7304C48.8543 55.7471 49.6153 54.3875 49.8341 52.8742C51.3561 52.9242 52.8176 52.4114 53.9829 51.4157C55.1888 50.3853 55.8924 48.9755 56.0671 47.5061C57.5838 47.5478 59.1227 47.0573 60.3744 46.0074C63.0602 43.7553 63.4237 39.6319 61.1676 36.9446L59.391 34.8285C64.0413 26.9021 66.4094 18.542 60.4517 8.71129C56.7696 2.63594 48.9333 -0.704364 41.8474 0.762576Z" fill="#013EBD"/>
<path id="Vector_3" d="M33.0855 46.0872C31.8572 45.0574 30.3451 44.5829 28.8564 44.6355C28.6605 43.1139 27.9205 41.6601 26.6683 40.623C25.3976 39.5577 23.823 39.0876 22.2849 39.1798C22.0648 37.7049 21.3315 36.3034 20.1146 35.2954C18.8862 34.2656 17.3742 33.7911 15.8855 33.8437C15.6895 32.3221 14.9496 30.8683 13.6973 29.8312C11.0609 27.621 7.11667 27.9657 4.9043 30.6005L1.77732 34.3248C-0.471293 37.0031 -0.0871561 41.015 2.58156 43.1485C3.92898 44.2257 5.40344 44.6392 6.7763 44.6085C6.96843 46.1387 7.72084 47.591 8.99866 48.6126C10.3965 49.73 11.9309 50.1327 13.3468 50.0666C13.5645 51.5488 14.3108 52.9477 15.5522 53.9401C16.8996 55.0173 18.3741 55.4309 19.747 55.4001C19.9391 56.9304 20.6915 58.3827 21.9693 59.4042C25.2452 62.023 29.273 60.7252 30.7623 58.6348L33.8893 54.9105C36.0923 52.2874 35.7174 48.2671 33.0855 46.0872ZM5.21472 40.0092C4.27756 39.2873 4.16392 37.8534 4.91346 36.9609L8.04043 33.2366C8.80146 32.3298 10.159 32.2116 11.0632 32.9693C11.992 33.6848 12.1121 35.098 11.385 35.9929C11.3641 36.0171 11.3422 36.0401 11.3215 36.0647L8.19455 39.789L8.18662 39.799C7.41794 40.6518 6.10238 40.7518 5.21472 40.0092ZM11.632 45.4734C10.76 44.8018 10.6021 43.5144 11.1878 42.6195C11.2531 42.5418 11.3155 42.4616 11.3749 42.3791L14.5018 38.6548C14.5046 38.6517 14.507 38.6482 14.5098 38.645C15.2791 37.7914 16.5961 37.6922 17.4807 38.4335C18.4183 39.1557 18.5332 40.5897 17.7829 41.483L14.656 45.2073C13.8953 46.1133 12.5393 46.2324 11.632 45.4734ZM18.1855 50.801C17.2484 50.0791 17.1347 48.6452 17.8843 47.7527L21.0112 44.0284C21.7723 43.1215 23.1298 43.0034 24.034 43.7611C24.9628 44.4766 25.0829 45.8898 24.3558 46.7847C24.3349 46.8089 24.313 46.8319 24.2923 46.8565L21.1654 50.5808L21.1574 50.5908C20.3887 51.4435 19.0733 51.5434 18.1855 50.801ZM30.7536 52.2748L27.6266 55.9991C26.8663 56.9051 25.5102 57.0242 24.6028 56.2652C23.7308 55.5936 23.5729 54.3062 24.1586 53.4113C24.2239 53.3335 24.2863 53.2533 24.3457 53.1709L27.4726 49.4466C27.4754 49.4435 27.4778 49.44 27.4806 49.4368C28.2499 48.5832 29.5669 48.484 30.4515 49.2253C31.3888 49.9474 31.5037 51.3814 30.7536 52.2748Z" fill="#013EBD"/>
</g>
<defs>
<clipPath id="clip0_400_591">
<rect width="64" height="64" fill="white"/>
</clipPath>
</defs>
</svg>
